HIERARCHY
ROOT Hips
{
  OFFSET -11.4042 90.9273 -54.5192
  CHANNELS 6 Xposition Yposition Zposition Zrotation Xrotation Yrotation
  JOINT ToSpine
  {
    OFFSET -2.69724 7.43032 -0.144315
    CHANNELS 3 Zrotation Xrotation Yrotation
    JOINT Spine
    {
      OFFSET -0.0310711 10.7595 1.96963
      CHANNELS 3 Zrotation Xrotation Yrotation
      JOINT Spine1
      {
        OFFSET 13.1342 3.43533 0.764692
        CHANNELS 3 Zrotation Xrotation Yrotation
        JOINT Neck
        {
          OFFSET 29.8703 7.82586 -0.130764
          CHANNELS 3 Zrotation Xrotation Yrotation
          JOINT Head
          {
            OFFSET 9.52751 0.295786 -0.907742
            CHANNELS 3 Zrotation Xrotation Yrotation
            End Site
            {
              OFFSET 16.4037 0.713936 2.7358
            }
          }
        }
        JOINT LeftShoulder
        {
          OFFSET 27.5574 4.95586 2.47156
          CHANNELS 3 Zrotation Xrotation Yrotation
          JOINT LeftArm
          {
            OFFSET 1.20734 -0.998971 20.1238
            CHANNELS 3 Zrotation Xrotation Yrotation
            JOINT LeftForeArm
            {
              OFFSET 26.8049 -0.0536703 -0.155908
              CHANNELS 3 Zrotation Xrotation Yrotation
              JOINT LeftHand
              {
                OFFSET 26.6817 0 0.320147
                CHANNELS 3 Zrotation Xrotation Yrotation
                End Site
                {
                  OFFSET 18.6119 0 0.382219
                }
              }
            }
          }
        }
        JOINT RightShoulder
        {
          OFFSET 27.5927 4.71444 -2.65209
          CHANNELS 3 Zrotation Xrotation Yrotation
          JOINT RightArm
          {
            OFFSET 2.83739 -1.17114 -18.7564
            CHANNELS 3 Zrotation Xrotation Yrotation
            JOINT RightForeArm
            {
              OFFSET 28.839 -0.0548439 1.22491
              CHANNELS 3 Zrotation Xrotation Yrotation
              JOINT RightHand
              {
                OFFSET 26.5114 0 -0.101894
                CHANNELS 3 Zrotation Xrotation Yrotation
                End Site
                {
                  OFFSET 18.2168 0 0
                }
              }
            }
          }
        }
      }
    }
  }
  JOINT LeftUpLeg
  {
    OFFSET -4.76168 -1.9167 -10.2353
    CHANNELS 3 Zrotation Xrotation Yrotation
    JOINT LeftLeg
    {
      OFFSET 2.55951 -42.0585 -8.02213
      CHANNELS 3 Zrotation Xrotation Yrotation
      JOINT LeftFoot
      {
        OFFSET 3.16357 -42.5282 -3.95426
        CHANNELS 3 Zrotation Xrotation Yrotation
        JOINT LeftToeBase
        {
          OFFSET 0.346054 -6.02161 12.8035
          CHANNELS 3 Zrotation Xrotation Yrotation
          End Site
          {
            OFFSET 0.134235 -1.35082 5.13018
          }
        }
      }
    }
  }
  JOINT RightUpLeg
  {
    OFFSET -4.94151 -1.41743 10.6446
    CHANNELS 3 Zrotation Xrotation Yrotation
    JOINT RightLeg
    {
      OFFSET -2.56294 -42.0364 -7.94377
      CHANNELS 3 Zrotation Xrotation Yrotation
      JOINT RightFoot
      {
        OFFSET -3.0952 -42.555 -4.02241
        CHANNELS 3 Zrotation Xrotation Yrotation
        JOINT RightToeBase
        {
          OFFSET -0.0828122 -6.13587 12.8035
          CHANNELS 3 Zrotation Xrotation Yrotation
          End Site
          {
            OFFSET -0.131328 -1.35082 5.13018
          }
        }
      }
    }
  }
}
MOTION
Frames:	8
Frame Time:	0.0333333
18.109 97.7043 -19.8544 77.7628 9.64771 37.1933 -70.1915 0 88.8779 68.4794 70.4907 0.950517 1.43331 17.951 7.27877 -121.278 18.4092 145.19 -166.902 67.3916 -162.659 -0.267069 -16.6483 -30.7333 -51.1386 30.6583 -126.178 16.2875 4.04641 -75.8295 0.420957 0.000575622 0.35866 -0.544956 3.26764 33.3067 -99.1628 -7.11502 59.4385 -26.3675 9.94029 70.4916 0.58676 0.00033103 0.0646656 -32.1303 34.0377 84.4139 -1.5933 48.605 7.66453 4.07565 -15.9705 -1.31655 -0.985536 1.29246 1.83264 -24.6458 -10.3462 67.1713 17.0916 79.1263 -14.8354 27.7764 16.046 -6.57073 -9.71066 -18.3825 6.67464 
17.9056 97.5111 -20.4161 78.1967 9.44292 32.7909 -70.1915 0 88.8779 70.8333 70.8309 0.625948 1.77138 19.0384 4.59466 -121.55 19.8098 147.568 -167.539 67.8565 -161.536 -0.0649553 -15.797 -30.1991 -53.0836 31.1005 -125.152 16.8458 3.59413 -77.6951 0.420957 0.000575622 0.35866 -0.626401 3.86577 32.2391 -100.259 -6.95244 62.3448 -21.7243 6.82967 73.0708 0.58676 0.00033103 0.0646656 -35.8736 30.967 89.0535 -1.56257 48.0222 7.57964 3.83065 -15.5532 -1.30009 -0.560279 0.284524 2.09923 -32.2077 -5.38155 61.3839 8.96963 69.8816 -0.725111 21.9087 19.8437 -6.02528 -2.67389 -34.2919 11.0524 
17.3971 97.4741 -21.1077 77.5287 9.7153 28.061 -70.1915 0 88.8779 72.8098 71.1199 0.196412 1.7001 19.9081 2.62804 -122.649 22.0709 151.214 -170.072 68.5849 -158.6 -0.0109345 -15.5464 -30.1131 -55.0792 30.9767 -124.413 17.5794 3.03371 -79.8958 0.420957 0.000575622 0.35866 -0.737424 4.65445 31.2512 -102.565 -6.30611 64.5716 -14.2056 3.51198 76.0666 0.58676 0.00033103 0.0646656 -38.441 26.3195 93.1233 -1.54387 46.8515 6.94129 2.3769 -14.875 -1.27026 -0.652525 0.178048 2.80401 -38.3597 -2.34402 57.8603 6.34625 61.1443 8.94942 13.0228 22.725 -3.92457 -0.161323 -45.3989 9.11394 
16.6213 97.2472 -21.6837 75.8216 10.203 22.5133 -70.1915 0 88.8779 74.1733 71.7672 -0.627686 0.609907 21.0626 1.20908 -123.856 24.855 154.791 -175.076 69.7701 -153.254 -0.00995125 -15.5743 -29.988 -57.3834 30.7446 -124.244 20.4001 2.55118 -82.5285 0.420957 0.000575622 0.35866 -0.675125 4.60195 30.1832 -105.863 -6.366 67.0936 -4.86233 0.968472 78.2778 0.58676 0.00033103 0.0646656 -39.2985 21.1188 97.7476 -1.7424 46.2487 5.34791 2.22575 -12.9687 -1.1625 0.33954 -1.00599 0.648689 -42.5296 -1.51426 56.9845 4.66709 52.7888 11.6379 9.34565 25.5234 -3.21779 1.56285 -40.6469 14.7991 
15.8256 97.1945 -22.1243 74.6606 11.4308 17.6627 -70.1915 0 88.8779 78.1172 72.162 -3.40076 0.220049 21.8362 -0.142772 -127.419 28.244 160.897 175.48 70.3407 -145.636 0.0781315 -15.0364 -30.3588 -59.3728 29.6187 -124.916 21.2118 1.64615 -85.1144 0.420957 0.000575622 0.35866 -0.719561 5.29235 28.5953 -110.332 -7.88017 68.6526 1.74411 -0.303265 80.5225 0.58676 0.00033103 0.0646656 -39.8655 17.3595 101.576 -2.70388 46.5651 -1.30813 -2.07376 -11.0178 -0.893381 0.783619 -3.00335 3.43852 -47.4167 -1.28838 57.7176 3.03998 44.2197 7.26308 9.78601 15.4499 -1.55955 0.507962 -29.7047 19.7287 
14.8418 97.2212 -22.5469 73.1025 13.6526 14.595 -70.1915 0 88.8779 85.3093 71.736 -8.12588 -0.862547 22.0739 -1.63702 -131.262 31.409 166.508 165.053 70.7518 -137.507 0.252456 -14.361 -29.4182 -61.0205 29.1691 -126.516 23.159 0.877068 -87.2541 0.420957 0.000575622 0.35866 -0.8042 5.86969 28.4445 -115.299 -9.37144 69.4552 5.08995 -0.621664 82.9875 0.58676 0.00033103 0.0646656 -38.8779 15.2765 104.369 -3.93947 48.2122 -10.5259 -6.49765 -8.22875 -0.35693 3.04599 -7.43388 3.50626 -51.0074 -1.50063 57.2259 2.28914 35.363 7.59108 -9.03839 12.6012 3.05164 0.634803 -34.7518 4.7177 
13.7703 97.1252 -22.7309 71.9545 16.3269 12.7809 -70.1915 0 88.8779 93.2096 71.0979 -14.4055 -2.42546 21.6394 -1.01203 -133.916 33.989 170.818 156.331 71.0316 -129.76 0.315616 -14.1277 -28.855 -62.7717 29.0148 -129.523 22.0541 0.243052 -88.2717 0.420957 0.000575622 0.35866 -0.911086 6.16526 29.3545 -119.204 -9.07443 71.603 4.51837 -0.436417 84.4221 0.58676 0.00033103 0.0646656 -36.4307 13.8633 102.32 -6.54213 53.5185 -22.8572 -5.71072 -6.94168 -0.253862 5.98997 -13.5925 6.85933 -51.1553 -0.319616 65.6121 3.40274 31.0028 -3.24396 -12.5667 7.62038 3.73399 -0.485718 -25.4872 -2.55666 
12.7677 96.633 -22.9844 71.3113 16.6429 10.8255 -70.1915 0 88.8779 94.7711 70.9245 -14.4785 -2.61504 21.5463 -0.932329 -133.065 34.5792 170.614 157.258 71.8438 -129.494 0.40629 -13.7926 -28.0348 -64.8764 29.3437 -131.61 22.0872 0.205914 -89.9243 0.420957 0.000575622 0.35866 -1.28607 6.69581 33.8267 -121.149 -6.81183 78.0333 4.3813 -0.58526 82.3808 0.58676 0.00033103 0.0646656 -34.7102 13.9616 98.4565 -7.3118 58.6925 -20.4838 -4.30101 -11.4891 -0.872213 5.74597 -13.5767 11.7749 -49.1915 -1.16747 69.2722 1.50396 31.7354 -9.46579 -9.21248 1.08411 3.19919 -0.725269 -15.4008 3.50389 
